<svg xmlns="http://www.w3.org/2000/svg" viewBox="0 0 1024 1024" width="1024" height="1024">
  <defs>
    <clipPath id="sq"><path d="M 229 0 L 795 0 C 936 0 1024 88 1024 229 L 1024 795 C 1024 936 936 1024 795 1024 L 229 1024 C 88 1024 0 936 0 795 L 0 229 C 0 88 88 0 229 0 Z"></path></clipPath>
    <linearGradient id="bg" x1="0" y1="0" x2="0" y2="1">
      <stop offset="0" stop-color="#3a3d44"></stop>
      <stop offset="1" stop-color="#16181c"></stop>
    </linearGradient>
    <linearGradient id="amber" x1="0" y1="0" x2="1" y2="0">
      <stop offset="0" stop-color="#ff9b3a"></stop>
      <stop offset="1" stop-color="#ffd76b"></stop>
    </linearGradient>
  </defs>
  <g clip-path="url(#sq)">
    <rect width="1024" height="1024" fill="url(#bg)"></rect>
    <path d="M 360 240 L 512 392 L 664 240" stroke="rgba(255,255,255,0.16)" stroke-width="56" stroke-linecap="round" stroke-linejoin="round" fill="none"></path>
    <path d="M 360 420 L 512 572 L 664 420" stroke="rgba(255,255,255,0.38)" stroke-width="64" stroke-linecap="round" stroke-linejoin="round" fill="none"></path>
    <path d="M 332 620 L 512 800 L 692 620" stroke="url(#amber)" stroke-width="78" stroke-linecap="round" stroke-linejoin="round" fill="none"></path>
    <path d="M 0 0 L 1024 0 L 1024 360 Q 512 480 0 360 Z" fill="rgba(255,255,255,0.04)"></path>
  </g>
</svg>